<svg width="42" height="43" viewBox="0 0 42 43" fill="none" xmlns="http://www.w3.org/2000/svg">
<path d="M33.9702 30.5471C33.4917 31.6476 32.9252 32.6606 32.269 33.592C31.3744 34.8617 30.6419 35.7405 30.0774 36.2286C29.2024 37.0297 28.2648 37.4399 27.2609 37.4633C26.5401 37.4633 25.6709 37.2591 24.6591 36.845C23.6441 36.4327 22.7112 36.2286 21.8582 36.2286C20.9636 36.2286 20.0042 36.4327 18.978 36.845C17.9502 37.2591 17.1222 37.4749 16.4892 37.4963C15.5264 37.5372 14.5668 37.1152 13.6089 36.2286C12.9976 35.6978 12.2329 34.7878 11.3168 33.4987C10.3339 32.122 9.52587 30.5257 8.89283 28.7058C8.21486 26.74 7.875 24.8364 7.875 22.9935C7.875 20.8825 8.33323 19.0618 9.25105 17.536C9.97238 16.3105 10.932 15.3437 12.1331 14.634C13.3341 13.9243 14.6318 13.5627 16.0294 13.5395C16.7941 13.5395 17.7969 13.775 19.043 14.2378C20.2857 14.7021 21.0836 14.9376 21.4334 14.9376C21.6949 14.9376 22.5813 14.6622 24.0839 14.1133C25.5049 13.6043 26.7042 13.3935 27.6867 13.4766C30.3489 13.6904 32.349 14.7352 33.6792 16.6173C31.2982 18.0534 30.1204 20.0649 30.1438 22.6453C30.1653 24.6552 30.8978 26.3278 32.3373 27.6558C32.9897 28.2722 33.7183 28.7485 34.5288 29.0869C34.3531 29.5943 34.1675 30.0804 33.9702 30.5471ZM27.8644 6.6292C27.8644 8.20456 27.2863 9.67547 26.1338 11.0369C24.7431 12.6554 23.061 13.5907 21.2369 13.4431C21.2136 13.2541 21.2002 13.0552 21.2002 12.8462C21.2002 11.3338 21.8615 9.71533 23.036 8.39198C23.6224 7.72195 24.3681 7.16482 25.2725 6.72039C26.1749 6.2826 27.0284 6.04048 27.8312 5.99902C27.8546 6.20962 27.8644 6.42026 27.8644 6.6292Z" fill="#B8B8B8"/>
</svg>
