<svg width="24" height="25" viewBox="0 0 24 25" fill="none" xmlns="http://www.w3.org/2000/svg">
<path d="M8.625 12.749C9.24632 12.749 9.75 12.2453 9.75 11.624C9.75 11.0027 9.24632 10.499 8.625 10.499C8.00368 10.499 7.5 11.0027 7.5 11.624C7.5 12.2453 8.00368 12.749 8.625 12.749Z" fill="#0F0F0F"/>
<path d="M12.0005 18.7491C9.87142 18.7491 8.08079 17.3648 7.51407 15.4758C7.49822 15.4196 7.49572 15.3604 7.50677 15.3031C7.51782 15.2457 7.54212 15.1917 7.57772 15.1454C7.61333 15.0991 7.65925 15.0618 7.71184 15.0364C7.76443 15.011 7.82223 14.9982 7.88063 14.9991H16.1161C16.1745 14.9982 16.2323 15.011 16.2849 15.0364C16.3375 15.0618 16.3834 15.0991 16.419 15.1454C16.4546 15.1917 16.4789 15.2457 16.49 15.3031C16.501 15.3604 16.4985 15.4196 16.4827 15.4758C15.9206 17.3648 14.1295 18.7491 12.0005 18.7491Z" fill="#0F0F0F"/>
<path d="M15.375 12.749C15.9963 12.749 16.5 12.2453 16.5 11.624C16.5 11.0027 15.9963 10.499 15.375 10.499C14.7537 10.499 14.25 11.0027 14.25 11.624C14.25 12.2453 14.7537 12.749 15.375 12.749Z" fill="#0F0F0F"/>
<path fill-rule="evenodd" clip-rule="evenodd" d="M12 20.699C16.3907 20.699 19.95 17.1397 19.95 12.749C19.95 8.35836 16.3907 4.79902 12 4.79902C7.60934 4.79902 4.05 8.35836 4.05 12.749C4.05 17.1397 7.60934 20.699 12 20.699ZM21.75 12.749C21.75 18.1338 17.3848 22.499 12 22.499C6.61522 22.499 2.25 18.1338 2.25 12.749C2.25 7.36425 6.61522 2.99902 12 2.99902C17.3848 2.99902 21.75 7.36425 21.75 12.749Z" fill="#0F0F0F"/>
</svg>
