<svg width="42" height="43" viewBox="0 0 42 43" fill="none" xmlns="http://www.w3.org/2000/svg">
<path d="M5.25 21.8436C5.25089 25.6173 6.58949 29.267 9.02522 32.1366C11.4609 35.0062 14.8341 36.9076 18.5383 37.499V26.4235H14.5425V21.8436H18.543V18.3573C18.4547 17.5413 18.546 16.7157 18.8105 15.9393C19.075 15.1628 19.5061 14.4544 20.0733 13.8645C20.6406 13.2746 21.3299 12.8176 22.0925 12.5259C22.855 12.2342 23.672 12.1151 24.4855 12.1769C25.6667 12.1959 26.848 12.3021 28.0135 12.4938V16.3906H26.0227C25.6843 16.3461 25.3403 16.3785 25.0161 16.4857C24.6919 16.5929 24.3958 16.772 24.1496 17.0097C23.9035 17.2475 23.7136 17.5379 23.594 17.8595C23.4743 18.1811 23.4281 18.5256 23.4586 18.8676V21.8436H27.8229L27.1252 26.4251H23.4586V37.499C26.4316 37.0263 29.2077 35.7063 31.4583 33.6953C33.7088 31.6844 35.3396 29.0667 36.1574 26.1522C36.9753 23.2377 36.946 20.1484 36.073 17.2501C35.2001 14.3518 33.52 11.7659 31.2318 9.79847C28.9435 7.83107 26.1429 6.56459 23.1615 6.14897C20.1801 5.73336 17.1427 6.18601 14.409 7.45335C11.6753 8.72068 9.35983 10.7496 7.73662 13.2999C6.11341 15.8503 5.25048 18.8152 5.25 21.8436Z" fill="#1C51C0"/>
</svg>
