<svg width="42" height="43" viewBox="0 0 42 43" fill="none" xmlns="http://www.w3.org/2000/svg">
<path d="M36.7489 22.0989C36.7489 20.8039 36.6417 19.8589 36.4096 18.8789H21.3203V24.7238H30.1774C29.9989 26.1764 29.0346 28.3639 26.8917 29.8338L26.8617 30.0295L31.6326 33.6515L31.9632 33.6839C34.9988 30.9363 36.7489 26.8938 36.7489 22.0989Z" fill="#4285F4"/>
<path d="M21.322 37.499C25.6613 37.499 29.3041 36.099 31.9649 33.684L26.8934 29.8339C25.5363 30.7614 23.7148 31.4089 21.322 31.4089C17.0721 31.4089 13.4649 28.6615 12.1791 24.864L11.9906 24.8797L7.02972 28.6422L6.96484 28.819C9.60768 33.9639 15.0363 37.499 21.322 37.499Z" fill="#34A853"/>
<path d="M12.1785 24.864C11.8392 23.884 11.6429 22.8339 11.6429 21.749C11.6429 20.6639 11.8392 19.6139 12.1607 18.634L12.1517 18.4252L7.12859 14.6023L6.96425 14.6789C5.87501 16.8139 5.25 19.2115 5.25 21.749C5.25 24.2865 5.87501 26.6839 6.96425 28.8189L12.1785 24.864Z" fill="#FBBC05"/>
<path d="M21.3221 12.089C24.3399 12.089 26.3756 13.3665 27.5363 14.434L32.072 10.094C29.2864 7.55653 25.6613 5.99902 21.3221 5.99902C15.0363 5.99902 9.60768 9.53399 6.96484 14.6789L12.1613 18.634C13.465 14.8365 17.0721 12.089 21.3221 12.089Z" fill="#EB4335"/>
</svg>
