<svg width="24" height="25" viewBox="0 0 24 25" fill="none" xmlns="http://www.w3.org/2000/svg">
<path d="M2.49067 10.1209L21.2407 3.0245C21.3083 2.99863 21.382 2.9929 21.4528 3.008C21.5237 3.0231 21.5886 3.05838 21.6398 3.10959C21.691 3.1608 21.7263 3.22574 21.7414 3.29657C21.7565 3.36739 21.7508 3.44108 21.7249 3.50872L14.6285 22.2587C14.6003 22.3299 14.5509 22.3908 14.4871 22.4331C14.4232 22.4754 14.348 22.4972 14.2714 22.4954C14.1948 22.4937 14.1206 22.4686 14.0587 22.4234C13.9969 22.3782 13.9503 22.3152 13.9254 22.2428L10.766 14.4573C10.7292 14.347 10.6672 14.2467 10.5849 14.1645C10.5027 14.0822 10.4024 14.0202 10.2921 13.9834L2.50661 10.8268C2.43327 10.8024 2.36926 10.756 2.32334 10.6938C2.27742 10.6316 2.25184 10.5568 2.2501 10.4795C2.24835 10.4022 2.27053 10.3263 2.31359 10.2621C2.35666 10.1979 2.41851 10.1486 2.49067 10.1209V10.1209Z" stroke="#0F0F0F" stroke-width="1.8" stroke-linecap="round" stroke-linejoin="round"/>
<path d="M21.5625 3.18652L10.6406 14.1084" stroke="#0F0F0F" stroke-width="1.8" stroke-linecap="round" stroke-linejoin="round"/>
</svg>
