<svg width="24" height="25" viewBox="0 0 24 25" fill="none" xmlns="http://www.w3.org/2000/svg">
<path fill-rule="evenodd" clip-rule="evenodd" d="M4.50156 5.39912C3.75598 5.39912 3.15156 6.00354 3.15156 6.74912V18.7491C3.15156 19.4947 3.75598 20.0991 4.50156 20.0991H19.5016C20.2471 20.0991 20.8516 19.4947 20.8516 18.7491V6.74912C20.8516 6.00354 20.2471 5.39912 19.5016 5.39912H4.50156ZM1.35156 6.74912C1.35156 5.00942 2.76187 3.59912 4.50156 3.59912H19.5016C21.2413 3.59912 22.6516 5.00942 22.6516 6.74912V18.7491C22.6516 20.4888 21.2413 21.8991 19.5016 21.8991H4.50156C2.76187 21.8991 1.35156 20.4888 1.35156 18.7491V6.74912Z" fill="#0F0F0F"/>
<path fill-rule="evenodd" clip-rule="evenodd" d="M15.7516 8.39912C15.4202 8.39912 15.1516 8.66775 15.1516 8.99912C15.1516 9.33049 15.4202 9.59912 15.7516 9.59912C16.0829 9.59912 16.3516 9.33049 16.3516 8.99912C16.3516 8.66775 16.0829 8.39912 15.7516 8.39912ZM13.3516 8.99912C13.3516 7.67364 14.4261 6.59912 15.7516 6.59912C17.077 6.59912 18.1516 7.67364 18.1516 8.99912C18.1516 10.3246 17.077 11.3991 15.7516 11.3991C14.4261 11.3991 13.3516 10.3246 13.3516 8.99912Z" fill="#0F0F0F"/>
<path fill-rule="evenodd" clip-rule="evenodd" d="M7.34796 11.5137C7.80549 11.1075 8.40088 10.8914 9.01243 10.9095C9.62374 10.9276 10.2051 11.1784 10.6377 11.6107L14.8874 15.8524C15.2392 16.2035 15.2397 16.7734 14.8886 17.1252C14.5374 17.477 13.9676 17.4775 13.6158 17.1264L9.36609 12.8847C9.25792 12.7765 9.112 12.7132 8.95912 12.7087C8.80632 12.7042 8.65756 12.7581 8.54321 12.8596C8.54314 12.8596 8.54328 12.8595 8.54321 12.8596L2.84958 17.9218C2.47812 18.2521 1.90925 18.2187 1.57898 17.8472C1.24871 17.4758 1.2821 16.9069 1.65356 16.5766L7.34796 11.5137Z" fill="#0F0F0F"/>
<path fill-rule="evenodd" clip-rule="evenodd" d="M17.7281 15.8155C17.613 15.72 17.4664 15.6709 17.317 15.6778C17.1675 15.6848 17.0259 15.7474 16.9202 15.8534L11.138 21.6356C10.7865 21.987 10.2166 21.987 9.86517 21.6356C9.51369 21.2841 9.51369 20.7143 9.86517 20.3628L15.6461 14.5818C16.0691 14.1583 16.6357 13.9075 17.2336 13.8798C17.8319 13.852 18.4189 14.0489 18.8793 14.4318L18.8803 14.4327L22.328 17.308C22.7097 17.6264 22.7611 18.1939 22.4427 18.5756C22.1244 18.9573 21.5569 19.0087 21.1751 18.6903L17.7281 15.8155C17.7282 15.8157 17.728 15.8154 17.7281 15.8155Z" fill="#0F0F0F"/>
</svg>
